<svg width="21" height="20" viewBox="0 0 21 20" fill="none" xmlns="http://www.w3.org/2000/svg">
<path d="M18.5773 9.61407C18.5301 9.72828 18.45 9.82591 18.3472 9.8946C18.2444 9.9633 18.1236 9.99998 18 10H14.875V16.25C14.875 16.5815 14.7433 16.8995 14.5089 17.1339C14.2745 17.3683 13.9565 17.5 13.625 17.5H7.375C7.04348 17.5 6.72554 17.3683 6.49112 17.1339C6.2567 16.8995 6.125 16.5815 6.125 16.25V10H3C2.87632 10.0001 2.75539 9.9635 2.65252 9.89483C2.54964 9.82616 2.46946 9.72851 2.42211 9.61425C2.37477 9.49998 2.36239 9.37424 2.38655 9.25294C2.4107 9.13163 2.47031 9.02023 2.55782 8.93282L10.0578 1.43282C10.1159 1.37471 10.1848 1.32861 10.2607 1.29715C10.3365 1.2657 10.4179 1.24951 10.5 1.24951C10.5821 1.24951 10.6635 1.2657 10.7393 1.29715C10.8152 1.32861 10.8841 1.37471 10.9422 1.43282L18.4422 8.93282C18.5296 9.02027 18.5891 9.13168 18.6131 9.25294C18.6372 9.3742 18.6247 9.49988 18.5773 9.61407Z" fill="white"/>
</svg>
