<svg width="25" height="25" viewBox="0 0 25 25" fill="none" xmlns="http://www.w3.org/2000/svg">
<path d="M19.8279 14.242L13.0779 20.992C13.0083 21.0617 12.9255 21.117 12.8345 21.1548C12.7434 21.1925 12.6459 21.212 12.5473 21.212C12.4487 21.212 12.3511 21.1925 12.2601 21.1548C12.169 21.117 12.0863 21.0617 12.0167 20.992L5.26667 14.242C5.12594 14.1013 5.04687 13.9104 5.04688 13.7114C5.04688 13.5123 5.12594 13.3215 5.26667 13.1807C5.4074 13.04 5.59827 12.9609 5.79729 12.9609C5.99631 12.9609 6.18719 13.04 6.32792 13.1807L11.7973 18.6511V3.96136C11.7973 3.76245 11.8763 3.57169 12.017 3.43103C12.1576 3.29038 12.3484 3.21136 12.5473 3.21136C12.7462 3.21136 12.937 3.29038 13.0776 3.43103C13.2183 3.57169 13.2973 3.76245 13.2973 3.96136V18.6511L18.7667 13.1807C18.9074 13.04 19.0983 12.9609 19.2973 12.9609C19.4963 12.9609 19.6872 13.04 19.8279 13.1807C19.9686 13.3215 20.0477 13.5123 20.0477 13.7114C20.0477 13.9104 19.9686 14.1013 19.8279 14.242Z" fill="white"/>
</svg>
