<svg width="24" height="24" viewBox="0 0 24 24" fill="none" xmlns="http://www.w3.org/2000/svg">
<path d="M16.6843 11.9563C16.6843 11.5657 16.5437 11.2454 16.2234 10.9407L10.3171 5.15161C10.0828 4.91724 9.7937 4.80005 9.44995 4.80005C8.76245 4.80005 8.19995 5.36255 8.19995 6.04224C8.19995 6.38599 8.34058 6.7063 8.59839 6.9563L13.7468 11.9485L8.59839 16.9485C8.34058 17.2063 8.19995 17.5188 8.19995 17.8704C8.19995 18.5579 8.76245 19.1125 9.44995 19.1125C9.7937 19.1125 10.0828 18.9954 10.3171 18.761L16.2234 12.9719C16.5515 12.6594 16.6843 12.3391 16.6843 11.9563Z" fill="white"/>
</svg>
