<svg width="24" height="25" viewBox="0 0 24 25" fill="none" xmlns="http://www.w3.org/2000/svg">
<g clip-path="url(#clip0_864_4118)">
<path d="M18.7458 6.59448V18.5945C18.7458 18.9923 18.5878 19.3738 18.3064 19.6551C18.0251 19.9364 17.6436 20.0945 17.2458 20.0945H15.7458C15.348 20.0945 14.9664 19.9364 14.6851 19.6551C14.4038 19.3738 14.2458 18.9923 14.2458 18.5945V13.3445H9.74579V18.5945C9.74579 18.9923 9.58775 19.3738 9.30645 19.6551C9.02514 19.9364 8.64361 20.0945 8.24579 20.0945H6.74579C6.34796 20.0945 5.96643 19.9364 5.68513 19.6551C5.40382 19.3738 5.24579 18.9923 5.24579 18.5945V6.59448C5.24579 6.19666 5.40382 5.81513 5.68513 5.53382C5.96643 5.25252 6.34796 5.09448 6.74579 5.09448H8.24579C8.64361 5.09448 9.02514 5.25252 9.30645 5.53382C9.58775 5.81513 9.74579 6.19666 9.74579 6.59448V11.8445H14.2458V6.59448C14.2458 6.19666 14.4038 5.81513 14.6851 5.53382C14.9664 5.25252 15.348 5.09448 15.7458 5.09448H17.2458C17.6436 5.09448 18.0251 5.25252 18.3064 5.53382C18.5878 5.81513 18.7458 6.19666 18.7458 6.59448ZM3.37079 7.34448H2.99579C2.59796 7.34448 2.21643 7.50252 1.93513 7.78382C1.65382 8.06513 1.49579 8.44666 1.49579 8.84448V11.8445H0.771101C0.577288 11.8416 0.389581 11.9123 0.245739 12.0422C0.101897 12.1721 0.0125916 12.3517 -0.00421149 12.5448C-0.0110233 12.6474 0.00333112 12.7503 0.0379601 12.8471C0.0725891 12.9439 0.126753 13.0326 0.197088 13.1075C0.267422 13.1825 0.352426 13.2423 0.446817 13.283C0.541209 13.3238 0.642973 13.3447 0.745788 13.3445H1.49579V16.3445C1.49579 16.7423 1.65382 17.1238 1.93513 17.4051C2.21643 17.6864 2.59796 17.8445 2.99579 17.8445H3.37079C3.47024 17.8445 3.56563 17.805 3.63595 17.7346C3.70628 17.6643 3.74579 17.5689 3.74579 17.4695V7.71948C3.74579 7.62003 3.70628 7.52464 3.63595 7.45432C3.56563 7.38399 3.47024 7.34448 3.37079 7.34448ZM23.9958 12.5448C23.979 12.352 23.89 12.1727 23.7465 12.0428C23.6031 11.9129 23.4158 11.8421 23.2224 11.8445H22.4958V8.84448C22.4958 8.44666 22.3378 8.06513 22.0564 7.78382C21.7751 7.50252 21.3936 7.34448 20.9958 7.34448H20.6208C20.5213 7.34448 20.4259 7.38399 20.3556 7.45432C20.2853 7.52464 20.2458 7.62003 20.2458 7.71948V17.4695C20.2458 17.5689 20.2853 17.6643 20.3556 17.7346C20.4259 17.805 20.5213 17.8445 20.6208 17.8445H20.9958C21.3936 17.8445 21.7751 17.6864 22.0564 17.4051C22.3378 17.1238 22.4958 16.7423 22.4958 16.3445V13.3445H23.2458C23.3486 13.3447 23.4504 13.3238 23.5448 13.283C23.6392 13.2423 23.7242 13.1825 23.7945 13.1075C23.8648 13.0326 23.919 12.9439 23.9536 12.8471C23.9882 12.7503 24.0026 12.6474 23.9958 12.5448Z" fill="white"/>
</g>
<defs>
<clipPath id="clip0_864_4118">
<rect width="24" height="24" fill="white" transform="translate(-0.00439453 0.594482)"/>
</clipPath>
</defs>
</svg>
