<svg width="16" height="16" viewBox="0 0 16 16" fill="none" xmlns="http://www.w3.org/2000/svg">
<path d="M8.74992 8.00005V10.5C8.74992 10.699 8.6709 10.8897 8.53025 11.0304C8.3896 11.171 8.19883 11.25 7.99992 11.25C7.80101 11.25 7.61024 11.171 7.46959 11.0304C7.32894 10.8897 7.24992 10.699 7.24992 10.5V8.00005C7.24992 7.80114 7.32894 7.61037 7.46959 7.46972C7.61024 7.32907 7.80101 7.25005 7.99992 7.25005C8.19883 7.25005 8.3896 7.32907 8.53025 7.46972C8.6709 7.61037 8.74992 7.80114 8.74992 8.00005ZM10.5037 7.92567L10.2537 10.4257C10.234 10.6236 10.2937 10.8212 10.4197 10.9751C10.5457 11.129 10.7276 11.2266 10.9255 11.2463C10.9505 11.2463 10.9762 11.25 11.0005 11.25C11.1865 11.2499 11.3657 11.1807 11.5035 11.0558C11.6412 10.931 11.7277 10.7594 11.7462 10.5744L11.9962 8.07443C12.0134 7.87781 11.9525 7.68232 11.8265 7.53035C11.7006 7.37838 11.5198 7.28218 11.3234 7.26261C11.127 7.24303 10.9308 7.30167 10.7774 7.42579C10.6239 7.54991 10.5256 7.72952 10.5037 7.92567ZM5.49617 7.92567C5.47426 7.72952 5.37592 7.54991 5.22247 7.42579C5.06901 7.30167 4.87282 7.24303 4.67642 7.26261C4.48002 7.28218 4.29926 7.37838 4.17332 7.53035C4.04738 7.68232 3.98643 7.87781 4.00367 8.07443L4.25367 10.5744C4.27212 10.7595 4.3587 10.9312 4.4966 11.056C4.63451 11.1809 4.81389 11.25 4.99992 11.25C5.02429 11.25 5.04992 11.25 5.07492 11.2463C5.27283 11.2266 5.4548 11.129 5.5808 10.9751C5.70679 10.8212 5.7665 10.6236 5.74679 10.4257L5.49617 7.92567ZM15.2462 5.59942L14.3043 12.6619C14.2642 12.9629 14.1162 13.2392 13.8878 13.4393C13.6594 13.6394 13.3661 13.7498 13.0624 13.75H2.93742C2.63475 13.7492 2.34262 13.6389 2.11494 13.4394C1.88726 13.24 1.7394 12.965 1.69867 12.665L0.756793 5.60255C0.742147 5.49639 0.750422 5.38833 0.781058 5.28563C0.811695 5.18294 0.863983 5.08801 0.9344 5.00723C1.00482 4.92645 1.09173 4.86169 1.18928 4.81733C1.28683 4.77297 1.39275 4.75003 1.49992 4.75005H4.15929L7.43742 1.0063C7.50781 0.925869 7.59458 0.861413 7.69192 0.817251C7.78926 0.77309 7.89491 0.750244 8.00179 0.750244C8.10868 0.750244 8.21433 0.77309 8.31167 0.817251C8.409 0.861413 8.49577 0.925869 8.56617 1.0063L11.8405 4.75005H14.4999C14.6068 4.75009 14.7124 4.77296 14.8097 4.81714C14.907 4.86131 14.9937 4.92578 15.0641 5.0062C15.1345 5.08663 15.1868 5.18116 15.2177 5.28347C15.2486 5.38578 15.2572 5.4935 15.243 5.59942H15.2462ZM6.15304 4.75005H9.84679L7.99992 2.6388L6.15304 4.75005ZM13.643 6.25005H2.35679L3.15679 12.25H12.8443L13.643 6.25005Z" fill="white"/>
</svg>
