<svg width="25" height="25" viewBox="0 0 25 25" fill="none" xmlns="http://www.w3.org/2000/svg">
<path d="M21.9409 7.72321L9.94092 19.7232C9.8364 19.8281 9.71221 19.9113 9.57546 19.9681C9.43872 20.0249 9.29211 20.0541 9.14404 20.0541C8.99598 20.0541 8.84937 20.0249 8.71262 19.9681C8.57587 19.9113 8.45168 19.8281 8.34717 19.7232L3.09717 14.4732C2.99252 14.3686 2.90951 14.2443 2.85287 14.1076C2.79624 13.9709 2.76709 13.8243 2.76709 13.6763C2.76709 13.5283 2.79624 13.3818 2.85287 13.2451C2.90951 13.1083 2.99252 12.9841 3.09717 12.8795C3.20181 12.7748 3.32605 12.6918 3.46278 12.6352C3.5995 12.5785 3.74605 12.5494 3.89404 12.5494C4.04203 12.5494 4.18858 12.5785 4.32531 12.6352C4.46204 12.6918 4.58627 12.7748 4.69092 12.8795L9.14498 17.3335L20.349 6.13133C20.5604 5.91999 20.847 5.80125 21.1459 5.80125C21.4448 5.80125 21.7314 5.91999 21.9428 6.13133C22.1541 6.34267 22.2729 6.62932 22.2729 6.92821C22.2729 7.22709 22.1541 7.51374 21.9428 7.72508L21.9409 7.72321Z" fill="white"/>
</svg>
