<svg width="21" height="20" viewBox="0 0 21 20" fill="none" xmlns="http://www.w3.org/2000/svg">
<path d="M16.7501 7.49999C16.7501 7.31457 16.805 7.13331 16.9081 6.97914C17.0111 6.82497 17.1575 6.70481 17.3288 6.63385C17.5001 6.56289 17.6886 6.54433 17.8705 6.5805C18.0523 6.61667 18.2194 6.70596 18.3505 6.83707C18.4816 6.96819 18.5709 7.13523 18.607 7.31709C18.6432 7.49895 18.6246 7.68745 18.5537 7.85875C18.4827 8.03006 18.3626 8.17648 18.2084 8.27949C18.0542 8.3825 17.873 8.43749 17.6876 8.43749C17.4389 8.43749 17.2005 8.33872 17.0246 8.1629C16.8488 7.98708 16.7501 7.74863 16.7501 7.49999ZM15.8126 5.62499C15.998 5.62499 16.1792 5.57 16.3334 5.46699C16.4876 5.36398 16.6077 5.21756 16.6787 5.04625C16.7497 4.87495 16.7682 4.68645 16.732 4.50459C16.6959 4.32273 16.6066 4.15569 16.4755 4.02457C16.3444 3.89346 16.1773 3.80417 15.9955 3.768C15.8136 3.73183 15.6251 3.75039 15.4538 3.82135C15.2825 3.89231 15.1361 4.01247 15.0331 4.16664C14.93 4.32081 14.8751 4.50207 14.8751 4.68749C14.8751 4.93613 14.9738 5.17458 15.1496 5.3504C15.3255 5.52622 15.5639 5.62499 15.8126 5.62499ZM18.0516 9.99999C17.8865 9.98637 17.7227 10.0389 17.5963 10.146C17.4699 10.2531 17.3911 10.406 17.3774 10.5711C17.2655 11.8777 16.7828 13.1252 15.9861 14.1667C15.1893 15.2083 14.1116 16.0007 12.8798 16.4505C11.648 16.9004 10.3133 16.9891 9.03279 16.7061C7.75229 16.4232 6.57924 15.7804 5.65165 14.8534C4.72407 13.9264 4.08055 12.7538 3.79681 11.4735C3.51307 10.1931 3.60091 8.8584 4.05001 7.62631C4.4991 6.39422 5.29076 5.31602 6.33183 4.51859C7.3729 3.72116 8.62008 3.23766 9.92662 3.12499C10.0087 3.11822 10.0886 3.09534 10.1619 3.05768C10.2351 3.02001 10.3002 2.96829 10.3535 2.90547C10.4067 2.84264 10.4471 2.76995 10.4722 2.69153C10.4974 2.61311 10.5068 2.5305 10.5001 2.44842C10.4933 2.36635 10.4704 2.28641 10.4327 2.21317C10.3951 2.13994 10.3434 2.07483 10.2805 2.02159C10.2177 1.96834 10.145 1.92798 10.0666 1.90283C9.98818 1.87768 9.90557 1.86822 9.82349 1.87499C8.27976 2.00777 6.80607 2.57869 5.57579 3.52058C4.34551 4.46246 3.40983 5.73613 2.87883 7.19173C2.34783 8.64733 2.2436 10.2243 2.57841 11.7371C2.91321 13.25 3.67312 14.6357 4.76874 15.7313C5.86435 16.8269 7.25008 17.5868 8.76291 17.9216C10.2757 18.2564 11.8527 18.1522 13.3083 17.6212C14.7639 17.0902 16.0376 16.1545 16.9795 14.9243C17.9213 13.694 18.4923 12.2203 18.6251 10.6765C18.6321 10.5944 18.6229 10.5117 18.5978 10.4332C18.5728 10.3546 18.5324 10.2818 18.4791 10.2189C18.4258 10.156 18.3606 10.1043 18.2872 10.0668C18.2139 10.0292 18.1338 10.0065 18.0516 9.99999ZM10.5001 4.37499C11.6126 4.37499 12.7001 4.70489 13.6251 5.32297C14.5502 5.94105 15.2711 6.81956 15.6969 7.84739C16.1226 8.87523 16.234 10.0062 16.017 11.0974C15.7999 12.1885 15.2642 13.1908 14.4775 13.9775C13.6909 14.7641 12.6886 15.2999 11.5974 15.5169C10.5063 15.7339 9.3753 15.6226 8.34746 15.1968C7.31963 14.7711 6.44112 14.0501 5.82304 13.1251C5.20496 12.2 4.87506 11.1125 4.87506 9.99999C4.87671 8.50865 5.46987 7.07887 6.52441 6.02434C7.57894 4.96981 9.00872 4.37664 10.5001 4.37499ZM9.87506 9.99999C9.87506 10.1657 9.9409 10.3247 10.0581 10.4419C10.1753 10.5591 10.3343 10.625 10.5001 10.625H14.2501C14.4158 10.625 14.5748 10.5591 14.692 10.4419C14.8092 10.3247 14.8751 10.1657 14.8751 9.99999C14.8751 9.83423 14.8092 9.67526 14.692 9.55805C14.5748 9.44083 14.4158 9.37499 14.2501 9.37499H11.1251V6.24999C11.1251 6.08423 11.0592 5.92526 10.942 5.80805C10.8248 5.69084 10.6658 5.62499 10.5001 5.62499C10.3343 5.62499 10.1753 5.69084 10.0581 5.80805C9.9409 5.92526 9.87506 6.08423 9.87506 6.24999V9.99999ZM13.0001 3.74999C13.1855 3.74999 13.3667 3.695 13.5209 3.59199C13.6751 3.48898 13.7952 3.34256 13.8662 3.17125C13.9372 2.99995 13.9557 2.81145 13.9195 2.62959C13.8834 2.44773 13.7941 2.28069 13.663 2.14957C13.5319 2.01846 13.3648 1.92917 13.183 1.893C13.0011 1.85683 12.8126 1.87539 12.6413 1.94635C12.47 2.01731 12.3236 2.13747 12.2206 2.29164C12.1175 2.44581 12.0626 2.62707 12.0626 2.81249C12.0626 3.06113 12.1613 3.29958 12.3371 3.4754C12.513 3.65122 12.7514 3.74999 13.0001 3.74999Z" fill="white"/>
</svg>
