<svg width="24" height="25" viewBox="0 0 24 25" fill="none" xmlns="http://www.w3.org/2000/svg">
<path d="M12 2.50806C10.0716 2.50806 8.18657 3.07988 6.58319 4.15123C4.97982 5.22257 3.73013 6.74531 2.99218 8.52689C2.25422 10.3085 2.06114 12.2689 2.43735 14.1602C2.81355 16.0515 3.74215 17.7888 5.10571 19.1523C6.46928 20.5159 8.20656 21.4445 10.0979 21.8207C11.9892 22.1969 13.9496 22.0038 15.7312 21.2659C17.5127 20.5279 19.0355 19.2782 20.1068 17.6749C21.1782 16.0715 21.75 14.1864 21.75 12.2581C21.7473 9.67303 20.7192 7.19467 18.8913 5.36678C17.0634 3.53889 14.585 2.51079 12 2.50806ZM13.125 16.7581H12.75V17.5081C12.75 17.707 12.671 17.8977 12.5303 18.0384C12.3897 18.179 12.1989 18.2581 12 18.2581C11.8011 18.2581 11.6103 18.179 11.4697 18.0384C11.329 17.8977 11.25 17.707 11.25 17.5081V16.7581H9.75C9.55109 16.7581 9.36033 16.679 9.21967 16.5384C9.07902 16.3977 9 16.207 9 16.0081C9 15.8091 9.07902 15.6184 9.21967 15.4777C9.36033 15.3371 9.55109 15.2581 9.75 15.2581H13.125C13.4234 15.2581 13.7095 15.1395 13.9205 14.9286C14.1315 14.7176 14.25 14.4314 14.25 14.1331C14.25 13.8347 14.1315 13.5485 13.9205 13.3376C13.7095 13.1266 13.4234 13.0081 13.125 13.0081H10.875C10.1788 13.0081 9.51113 12.7315 9.01885 12.2392C8.52657 11.7469 8.25 11.0792 8.25 10.3831C8.25 9.68686 8.52657 9.01918 9.01885 8.5269C9.51113 8.03462 10.1788 7.75806 10.875 7.75806H11.25V7.00806C11.25 6.80914 11.329 6.61838 11.4697 6.47773C11.6103 6.33707 11.8011 6.25806 12 6.25806C12.1989 6.25806 12.3897 6.33707 12.5303 6.47773C12.671 6.61838 12.75 6.80914 12.75 7.00806V7.75806H14.25C14.4489 7.75806 14.6397 7.83707 14.7803 7.97773C14.921 8.11838 15 8.30914 15 8.50806C15 8.70697 14.921 8.89773 14.7803 9.03839C14.6397 9.17904 14.4489 9.25806 14.25 9.25806H10.875C10.5766 9.25806 10.2905 9.37658 10.0795 9.58756C9.86853 9.79854 9.75 10.0847 9.75 10.3831C9.75 10.6814 9.86853 10.9676 10.0795 11.1786C10.2905 11.3895 10.5766 11.5081 10.875 11.5081H13.125C13.8212 11.5081 14.4889 11.7846 14.9812 12.2769C15.4734 12.7692 15.75 13.4369 15.75 14.1331C15.75 14.8292 15.4734 15.4969 14.9812 15.9892C14.4889 16.4815 13.8212 16.7581 13.125 16.7581Z" fill="white"/>
</svg>
