<svg width="20" height="20" viewBox="0 0 20 20" fill="none" xmlns="http://www.w3.org/2000/svg">
<path d="M18.1481 5.25151H15.7463C16.09 4.74534 16.2811 4.149 16.2963 3.53495C16.31 3.06717 16.2291 2.60148 16.0586 2.16651C15.8881 1.73154 15.6315 1.33646 15.3047 1.00554C14.9778 0.674622 14.5876 0.414854 14.158 0.242195C13.7284 0.0695357 13.2685 -0.0123696 12.8065 0.00151041C12.3798 0.0107312 11.9595 0.109182 11.5722 0.290681C11.1848 0.472181 10.8387 0.732808 10.5556 1.0562C10.3467 1.29739 10.1607 1.55791 10 1.83432C9.83928 1.55791 9.65328 1.29739 9.44444 1.0562C9.16131 0.732808 8.8152 0.472181 8.42784 0.290681C8.04048 0.109182 7.62025 0.0107312 7.19352 0.00151041C6.73151 -0.0123696 6.27158 0.0695357 5.84198 0.242195C5.41237 0.414854 5.02217 0.674622 4.69534 1.00554C4.3685 1.33646 4.11194 1.73154 3.94142 2.16651C3.77089 2.60148 3.68999 3.06717 3.7037 3.53495C3.71895 4.149 3.91002 4.74534 4.2537 5.25151H1.85185C1.36071 5.25151 0.889684 5.44905 0.542395 5.80068C0.195105 6.15232 3.86031e-08 6.62923 3.86031e-08 7.12651V10.1265C-8.70928e-05 10.5588 0.147327 10.9778 0.417294 11.3126C0.687261 11.6474 1.0632 11.8776 1.48148 11.964V17.6265C1.48148 18.1238 1.67659 18.6007 2.02388 18.9523C2.37117 19.304 2.84219 19.5015 3.33333 19.5015H16.6667C17.1578 19.5015 17.6288 19.304 17.9761 18.9523C18.3234 18.6007 18.5185 18.1238 18.5185 17.6265V11.964C18.9368 11.8776 19.3127 11.6474 19.5827 11.3126C19.8527 10.9778 20.0001 10.5588 20 10.1265V7.12651C20 6.62923 19.8049 6.15232 19.4576 5.80068C19.1103 5.44905 18.6393 5.25151 18.1481 5.25151ZM17.7778 9.75151H11.1111V7.50151H17.7778V9.75151ZM12.2222 2.5487C12.3042 2.45659 12.4041 2.38264 12.5156 2.3315C12.6272 2.28036 12.7479 2.25312 12.8704 2.25151H12.9028C13.0595 2.25106 13.2146 2.28253 13.3591 2.34403C13.5035 2.40553 13.6343 2.49582 13.7435 2.60953C13.8528 2.72323 13.9384 2.85803 13.9952 3.00589C14.052 3.15376 14.0788 3.31168 14.0741 3.47026C14.0725 3.59423 14.0456 3.71652 13.9951 3.82945C13.9446 3.94239 13.8715 4.04353 13.7806 4.12651C13.1417 4.70026 12.0907 4.99464 11.2222 5.13526C11.3611 4.25964 11.6519 3.19557 12.2222 2.5487ZM6.26852 2.59839C6.48831 2.37824 6.78436 2.25376 7.09352 2.25151H7.12963C7.25206 2.25312 7.37285 2.28036 7.48439 2.3315C7.59593 2.38264 7.69582 2.45659 7.77778 2.5487C8.34444 3.19557 8.63519 4.2587 8.77315 5.13714C7.91204 4.99557 6.85185 4.7012 6.21944 4.12651C6.12848 4.04353 6.05544 3.94239 6.00493 3.82945C5.95442 3.71652 5.92752 3.59423 5.92593 3.47026C5.92183 3.30903 5.95008 3.14863 6.00897 2.99877C6.06785 2.84891 6.15615 2.7127 6.26852 2.59839ZM2.22222 7.50151H8.88889V9.75151H2.22222V7.50151ZM3.7037 12.0015H8.88889V17.2515H3.7037V12.0015ZM11.1111 17.2515V12.0015H16.2963V17.2515H11.1111Z" fill="black"/>
</svg>
