<svg width="25" height="25" viewBox="0 0 25 25" fill="none" xmlns="http://www.w3.org/2000/svg">
<path d="M21.3714 10.245L13.8714 2.74496C13.5901 2.46387 13.2087 2.30597 12.811 2.30597C12.4134 2.30597 12.032 2.46387 11.7507 2.74496L4.25073 10.245C4.11077 10.3839 3.99982 10.5493 3.92434 10.7314C3.84885 10.9136 3.81034 11.109 3.81104 11.3062V20.3062C3.81104 20.5051 3.89006 20.6959 4.03071 20.8365C4.17137 20.9772 4.36213 21.0562 4.56104 21.0562H10.561C10.76 21.0562 10.9507 20.9772 11.0914 20.8365C11.232 20.6959 11.311 20.5051 11.311 20.3062V15.0562H14.311V20.3062C14.311 20.5051 14.3901 20.6959 14.5307 20.8365C14.6714 20.9772 14.8621 21.0562 15.061 21.0562H21.061C21.26 21.0562 21.4507 20.9772 21.5914 20.8365C21.732 20.6959 21.811 20.5051 21.811 20.3062V11.3062C21.8117 11.109 21.7732 10.9136 21.6978 10.7314C21.6223 10.5493 21.5113 10.3839 21.3714 10.245ZM20.311 19.5562H15.811V14.3062C15.811 14.1073 15.732 13.9165 15.5914 13.7759C15.4507 13.6352 15.26 13.5562 15.061 13.5562H10.561C10.3621 13.5562 10.1714 13.6352 10.0307 13.7759C9.89006 13.9165 9.81104 14.1073 9.81104 14.3062V19.5562H5.31104V11.3062L12.811 3.80621L20.311 11.3062V19.5562Z" fill="white"/>
</svg>
