<svg width="25" height="24" viewBox="0 0 25 24" fill="none" xmlns="http://www.w3.org/2000/svg">
<path d="M21.9766 11.25V20.25C21.9766 20.4489 21.8975 20.6397 21.7569 20.7803C21.6162 20.921 21.4255 21 21.2266 21H15.9766C15.7777 21 15.5869 20.921 15.4462 20.7803C15.3056 20.6397 15.2266 20.4489 15.2266 20.25V15.375C15.2266 15.2755 15.1871 15.1801 15.1167 15.1098C15.0464 15.0395 14.951 15 14.8516 15H11.1016C11.0021 15 10.9067 15.0395 10.8364 15.1098C10.7661 15.1801 10.7266 15.2755 10.7266 15.375V20.25C10.7266 20.4489 10.6475 20.6397 10.5069 20.7803C10.3662 20.921 10.1755 21 9.97656 21H4.72656C4.52765 21 4.33688 20.921 4.19623 20.7803C4.05558 20.6397 3.97656 20.4489 3.97656 20.25V11.25C3.97675 10.8522 4.1349 10.4708 4.41625 10.1897L11.9163 2.68966C12.1975 2.40857 12.5789 2.25067 12.9766 2.25067C13.3742 2.25067 13.7556 2.40857 14.0369 2.68966L21.5369 10.1897C21.8182 10.4708 21.9764 10.8522 21.9766 11.25Z" fill="white"/>
</svg>
