<svg width="24" height="24" viewBox="0 0 24 24" fill="none" xmlns="http://www.w3.org/2000/svg">
<path d="M21.4576 2.45526C21.3414 2.35492 21.2 2.28819 21.0487 2.26225C20.8974 2.23631 20.7419 2.25216 20.5989 2.30807L1.59949 9.74339C1.33023 9.84809 1.10226 10.0374 0.949919 10.2829C0.797576 10.5284 0.729099 10.8167 0.754798 11.1045C0.780496 11.3922 0.898979 11.6638 1.09241 11.8784C1.28584 12.093 1.54375 12.239 1.8273 12.2943L6.75011 13.2609V18.75C6.74915 19.0489 6.838 19.3413 7.00515 19.5892C7.17231 19.8371 7.41007 20.0291 7.68761 20.1403C7.96473 20.2534 8.26949 20.2806 8.56225 20.2182C8.85501 20.1559 9.12224 20.0069 9.32918 19.7906L11.7029 17.3287L15.4689 20.625C15.7406 20.866 16.091 20.9993 16.4542 21C16.6133 20.9998 16.7715 20.9748 16.9229 20.9259C17.1704 20.8474 17.3929 20.7054 17.5684 20.5141C17.744 20.3228 17.8663 20.0889 17.9232 19.8356L21.7286 3.2812C21.7626 3.1319 21.7554 2.97616 21.7076 2.83066C21.6599 2.68516 21.5735 2.55539 21.4576 2.45526ZM16.4561 19.5L8.7048 12.7031L19.8611 4.70714L16.4561 19.5Z" fill="#1E1E24"/>
</svg>
