<svg width="25" height="25" viewBox="0 0 25 25" fill="none" xmlns="http://www.w3.org/2000/svg">
<path d="M20.6357 6.03625H5.63574C5.43683 6.03625 5.24606 5.95724 5.10541 5.81658C4.96476 5.67593 4.88574 5.48517 4.88574 5.28625C4.88574 5.08734 4.96476 4.89658 5.10541 4.75592C5.24606 4.61527 5.43683 4.53625 5.63574 4.53625H18.3857C18.5847 4.53625 18.7754 4.45724 18.9161 4.31658C19.0567 4.17593 19.1357 3.98517 19.1357 3.78625C19.1357 3.58734 19.0567 3.39658 18.9161 3.25592C18.7754 3.11527 18.5847 3.03625 18.3857 3.03625H5.63574C5.03901 3.03625 4.46671 3.27331 4.04475 3.69526C3.6228 4.11722 3.38574 4.68952 3.38574 5.28625V17.2863C3.38574 17.883 3.6228 18.4553 4.04475 18.8772C4.46671 19.2992 5.03901 19.5363 5.63574 19.5363H20.6357C21.0336 19.5363 21.4151 19.3782 21.6964 19.0969C21.9777 18.8156 22.1357 18.4341 22.1357 18.0363V7.53625C22.1357 7.13843 21.9777 6.7569 21.6964 6.47559C21.4151 6.19429 21.0336 6.03625 20.6357 6.03625ZM17.2607 13.5363C17.0382 13.5363 16.8207 13.4703 16.6357 13.3467C16.4507 13.223 16.3065 13.0473 16.2214 12.8418C16.1362 12.6362 16.114 12.41 16.1574 12.1918C16.2008 11.9736 16.3079 11.7731 16.4652 11.6158C16.6226 11.4584 16.823 11.3513 17.0413 11.3079C17.2595 11.2645 17.4857 11.2867 17.6913 11.3719C17.8968 11.457 18.0725 11.6012 18.1961 11.7862C18.3198 11.9712 18.3857 12.1888 18.3857 12.4113C18.3857 12.7096 18.2672 12.9958 18.0562 13.2067C17.8453 13.4177 17.5591 13.5363 17.2607 13.5363Z" fill="white"/>
</svg>
